<?xml version="1.0" encoding="utf-8"?>
<!-- Generator: Adobe Illustrator 18.1.1, SVG Export Plug-In . SVG Version: 6.00 Build 0)  -->
<!DOCTYPE svg PUBLIC "-//W3C//DTD SVG 1.1 Tiny//EN" "http://www.w3.org/Graphics/SVG/1.1/DTD/svg11-tiny.dtd">
<svg version="1.1" baseProfile="tiny" id="Layer_1" xmlns="http://www.w3.org/2000/svg" xmlns:xlink="http://www.w3.org/1999/xlink"
	 x="0px" y="0px" viewBox="0 0 600 400" xml:space="preserve">
<g>
	<g>
		<path fill="#2485C7" d="M191,85.6l-8.6-12.2l-2.5,5.5c-22.8-9-44.3-9.2-64-0.4c-24.7,11-39.8,33.2-45.8,50.3l2.8,1
			c5.8-16.5,20.4-38,44.2-48.6c18.8-8.4,39.5-8.2,61.5,0.4l-2.5,5.4L191,85.6z"/>
		<path fill="#30C974" d="M113,172.8c-20.6-0.3-34.7-6.8-40.1-18.5l5.7-1l-9.6-11.5L64,155.9l6-1.1c5.6,13.2,20.8,20.6,43.1,20.9
			c4.4,0.1,8.7-0.2,12.7-0.7l-0.4-3C121.5,172.6,117.3,172.8,113,172.8z"/>
		<path fill="#F4C619" d="M164.8,104.7l-2.8,1c8,22.9,3.2,44.9-12.1,56.8l-2.8-5.2l-7.8,12.8l15,0.4l-2.9-5.3
			C168,152.6,173.3,129.1,164.8,104.7z"/>
		<text transform="matrix(1 0 0 1 54.4443 80.7219)" fill="#2485C7" font-family="'ArialMT'" font-size="16">T</text>
		<text transform="matrix(1 0 0 1 62.4443 80.7219)" fill="#2485C7" font-family="'ArialMT'" font-size="16">e</text>
		<text transform="matrix(1 0 0 1 71.3428 80.7219)" fill="#2485C7" font-family="'ArialMT'" font-size="16">s</text>
		<text transform="matrix(1 0 0 1 79.3428 80.7219)" fill="#2485C7" font-family="'ArialMT'" font-size="16">t</text>
		<text transform="matrix(1 0 0 1 150.4544 44.4743)" fill="#C33020" font-family="'ArialMT'" font-size="16">Discover</text>
		<text transform="matrix(1 0 0 1 178.1829 125.5493)" fill="#F4C619" font-family="'ArialMT'" font-size="16">Design</text>
		<text transform="matrix(1 0 0 1 31.3457 188.7277)" fill="#30C974" font-family="'ArialMT'" font-size="16">Develop</text>
		<text transform="matrix(1 0 0 1 89.222 131.476)" fill="#474747" font-family="'ArialMT'" font-size="16">Sprint #1</text>
		<path fill="#C33020" d="M156.1,87.3c-15.2-27.5-35.9-42.9-61.6-45.8l-0.3,3c24.6,2.8,44.6,17.6,59.3,44.1l-5.4,2.7l12.5,8.3
			l0.9-14.9L156.1,87.3z"/>
	</g>
	<g>
		<path fill="#2485C7" d="M361.4,173.2l-8.6-12.2l-2.5,5.5c-22.8-9-44.3-9.2-64-0.4c-24.7,11-39.8,33.2-45.8,50.3l2.8,1
			c5.8-16.5,20.4-38,44.2-48.6c18.8-8.4,39.5-8.2,61.5,0.4l-2.5,5.4L361.4,173.2z"/>
		<path fill="#30C974" d="M283.4,260.4c-20.6-0.3-34.7-6.8-40.1-18.5l5.7-1l-9.6-11.5l-5.1,14.1l6-1.1c5.6,13.2,20.8,20.6,43.1,20.9
			c4.4,0.1,8.7-0.2,12.7-0.7l-0.4-3C291.8,260.3,287.7,260.5,283.4,260.4z"/>
		<path fill="#F4C619" d="M335.1,192.4l-2.8,1c8,22.9,3.2,44.9-12.1,56.8l-2.8-5.2l-7.8,12.8l15,0.4l-2.9-5.3
			C338.3,240.2,343.7,216.7,335.1,192.4z"/>
		<text transform="matrix(1 0 0 1 224.7776 168.3887)" fill="#2485C7" font-family="'ArialMT'" font-size="16">T</text>
		<text transform="matrix(1 0 0 1 232.7776 168.3887)" fill="#2485C7" font-family="'ArialMT'" font-size="16">e</text>
		<text transform="matrix(1 0 0 1 241.6761 168.3887)" fill="#2485C7" font-family="'ArialMT'" font-size="16">s</text>
		<text transform="matrix(1 0 0 1 249.6761 168.3887)" fill="#2485C7" font-family="'ArialMT'" font-size="16">t</text>
		<text transform="matrix(1 0 0 1 320.7877 132.1412)" fill="#C33020" font-family="'ArialMT'" font-size="16">Discover</text>
		<text transform="matrix(1 0 0 1 348.5163 213.2161)" fill="#F4C619" font-family="'ArialMT'" font-size="16">Design</text>
		<text transform="matrix(1 0 0 1 201.679 276.3945)" fill="#30C974" font-family="'ArialMT'" font-size="16">Develop</text>
		<text transform="matrix(1 0 0 1 259.5553 219.1429)" fill="#474747" font-family="'ArialMT'" font-size="16">Sprint #2</text>
		<path fill="#C33020" d="M326.4,175c-15.2-27.5-35.9-42.9-61.6-45.8l-0.3,3c24.6,2.8,44.6,17.6,59.3,44.1l-5.4,2.7l12.5,8.3
			l0.9-14.9L326.4,175z"/>
	</g>
	<g>
		<path fill="#2485C7" d="M531.7,260.9l-8.6-12.2l-2.5,5.5c-22.8-9-44.3-9.2-64-0.4c-24.7,11-39.8,33.2-45.8,50.3l2.8,1
			c5.8-16.5,20.4-38,44.2-48.6c18.8-8.4,39.5-8.2,61.5,0.4l-2.5,5.4L531.7,260.9z"/>
		<path fill="#30C974" d="M453.7,348.1c-20.6-0.3-34.7-6.8-40.1-18.5l5.7-1l-9.6-11.5l-5.1,14.1l6-1.1c5.6,13.2,20.8,20.6,43.1,20.9
			c4.4,0.1,8.7-0.2,12.7-0.7l-0.4-3C462.1,347.9,458,348.2,453.7,348.1z"/>
		<path fill="#F4C619" d="M505.5,280l-2.8,1c8,22.9,3.2,44.9-12.1,56.8l-2.8-5.2l-7.8,12.8l15,0.4l-2.9-5.3
			C508.7,327.9,514,304.4,505.5,280z"/>
		<text transform="matrix(1 0 0 1 395.111 256.0551)" fill="#2485C7" font-family="'ArialMT'" font-size="16">T</text>
		<text transform="matrix(1 0 0 1 403.111 256.0551)" fill="#2485C7" font-family="'ArialMT'" font-size="16">e</text>
		<text transform="matrix(1 0 0 1 412.0094 256.0551)" fill="#2485C7" font-family="'ArialMT'" font-size="16">s</text>
		<text transform="matrix(1 0 0 1 420.0094 256.0551)" fill="#2485C7" font-family="'ArialMT'" font-size="16">t</text>
		<text transform="matrix(1 0 0 1 491.121 219.8077)" fill="#C33020" font-family="'ArialMT'" font-size="16">Discover</text>
		<text transform="matrix(1 0 0 1 518.8496 300.8826)" fill="#F4C619" font-family="'ArialMT'" font-size="16">Design</text>
		<text transform="matrix(1 0 0 1 372.0124 364.061)" fill="#30C974" font-family="'ArialMT'" font-size="16">Develop</text>
		<text transform="matrix(1 0 0 1 429.8886 306.8094)" fill="#474747" font-family="'ArialMT'" font-size="16">Sprint #3</text>
		<path fill="#C33020" d="M496.8,262.7c-15.2-27.5-35.9-42.9-61.6-45.8l-0.3,3c24.6,2.8,44.6,17.6,59.3,44.1l-5.4,2.7l12.5,8.3
			l0.9-14.9L496.8,262.7z"/>
	</g>
</g>
</svg>
