<?xml version="1.0" encoding="utf-8"?>
<!-- Generator: Adobe Illustrator 18.1.1, SVG Export Plug-In . SVG Version: 6.00 Build 0)  -->
<!DOCTYPE svg PUBLIC "-//W3C//DTD SVG 1.1 Tiny//EN" "http://www.w3.org/Graphics/SVG/1.1/DTD/svg11-tiny.dtd">
<svg version="1.1" baseProfile="tiny" id="Layer_1" xmlns="http://www.w3.org/2000/svg" xmlns:xlink="http://www.w3.org/1999/xlink"
	 x="0px" y="0px" viewBox="0 0 600 400" xml:space="preserve">
<g>
	<g>
		<g>
			<path fill="#C33020" d="M29.5,128.2l-2.7-1.4c10.6-20.1,31.2-35.3,53.8-39.7C96.7,84,121.4,85,147.3,107l-1.9,2.3
				c-25-21.3-48.7-22.2-64.1-19.2C59.5,94.3,39.7,108.9,29.5,128.2z"/>
			<g>
				<polygon fill="#C33020" points="139.6,112.3 154.2,115.5 149.7,101.3 				"/>
			</g>
		</g>
		<text transform="matrix(1 0 0 1 59.2709 64.4499)" fill="#C33020" font-family="'ArialMT'" font-size="16">Discover</text>
		<text transform="matrix(1 0 0 1 63.7103 139.3633)" fill="#C33020" font-family="'Arial-BoldMT'" font-size="12">Business</text>
		<text transform="matrix(1 0 0 1 52.3754 153.7632)" fill="#C33020" font-family="'Arial-BoldMT'" font-size="12">requirements</text>
	</g>
	<g>
		<g>
			<path fill="#F4C619" d="M169.2,191.9l-2.7-1.4c10.6-20.1,31.2-35.3,53.8-39.7c16.1-3.1,40.7-2.2,66.6,19.9L285,173
				c-25-21.3-48.7-22.2-64.1-19.2C199.2,157.9,179.4,172.5,169.2,191.9z"/>
			<g>
				<polygon fill="#F4C619" points="279.2,175.9 293.8,179.2 289.4,164.9 				"/>
			</g>
		</g>
		<text transform="matrix(1 0 0 1 205.1524 128.1166)" fill="#F4C619" font-family="'ArialMT'" font-size="16">Design</text>
		<text transform="matrix(1 0 0 1 202.8233 203.03)" fill="#F4C619" font-family="'Arial-BoldMT'" font-size="12">T</text>
		<text transform="matrix(1 0 0 1 209.2627 203.03)" fill="#F4C619" font-family="'Arial-BoldMT'" font-size="12">e</text>
		<text transform="matrix(1 0 0 1 215.9366 203.03)" fill="#F4C619" font-family="'Arial-BoldMT'" font-size="12">c</text>
		<text transform="matrix(1 0 0 1 222.6104 203.03)" fill="#F4C619" font-family="'Arial-BoldMT'" font-size="12">h</text>
		<text transform="matrix(1 0 0 1 229.9405 203.03)" fill="#F4C619" font-family="'Arial-BoldMT'" font-size="12">n</text>
		<text transform="matrix(1 0 0 1 237.2706 203.03)" fill="#F4C619" font-family="'Arial-BoldMT'" font-size="12">i</text>
		<text transform="matrix(1 0 0 1 240.6045 203.03)" fill="#F4C619" font-family="'Arial-BoldMT'" font-size="12">c</text>
		<text transform="matrix(1 0 0 1 247.2784 203.03)" fill="#F4C619" font-family="'Arial-BoldMT'" font-size="12">a</text>
		<text transform="matrix(1 0 0 1 253.9522 203.03)" fill="#F4C619" font-family="'Arial-BoldMT'" font-size="12">l</text>
		<text transform="matrix(1 0 0 1 210.7188 217.4299)" fill="#F4C619" font-family="'Arial-BoldMT'" font-size="12">d</text>
		<text transform="matrix(1 0 0 1 218.0489 217.4299)" fill="#F4C619" font-family="'Arial-BoldMT'" font-size="12">e</text>
		<text transform="matrix(1 0 0 1 224.7227 217.4299)" fill="#F4C619" font-family="'Arial-BoldMT'" font-size="12">s</text>
		<text transform="matrix(1 0 0 1 231.3965 217.4299)" fill="#F4C619" font-family="'Arial-BoldMT'" font-size="12">i</text>
		<text transform="matrix(1 0 0 1 234.7305 217.4299)" fill="#F4C619" font-family="'Arial-BoldMT'" font-size="12">g</text>
		<text transform="matrix(1 0 0 1 242.0606 217.4299)" fill="#F4C619" font-family="'Arial-BoldMT'" font-size="12">n</text>
	</g>
	<g>
		<g>
			<path fill="#2BCF70" d="M308.8,255.6l-2.7-1.4c10.6-20.1,31.2-35.3,53.8-39.7c16.1-3.1,40.7-2.2,66.6,19.9l-1.9,2.3
				c-25-21.3-48.7-22.2-64.1-19.2C338.9,221.6,319,236.2,308.8,255.6z"/>
			<g>
				<polygon fill="#2BCF70" points="418.9,239.6 433.5,242.9 429,228.6 				"/>
			</g>
		</g>
		<text transform="matrix(1 0 0 1 340.3698 191.7833)" fill="#2BCF70" font-family="'ArialMT'" font-size="16">Develop</text>
		<text transform="matrix(1 0 0 1 343.0612 266.6966)" fill="#2BCF70" font-family="'Arial-BoldMT'" font-size="12">Coding &amp;</text>
		<text transform="matrix(1 0 0 1 350.0544 281.0965)" fill="#2BCF70" font-family="'Arial-BoldMT'" font-size="12">testing</text>
	</g>
	<g>
		<g>
			<path fill="#2485C7" d="M448.5,319.2l-2.7-1.4c10.6-20.1,31.2-35.3,53.8-39.7c16.1-3.1,40.7-2.2,66.6,19.9l-1.9,2.3
				c-25-21.3-48.7-22.2-64.1-19.2C478.5,285.3,458.7,299.9,448.5,319.2z"/>
			<g>
				<polygon fill="#2485C7" points="558.6,303.3 573.2,306.5 568.7,292.3 				"/>
			</g>
		</g>
		<text transform="matrix(1 0 0 1 494.7162 255.45)" fill="#2485C7" font-family="'ArialMT'" font-size="16">T</text>
		<text transform="matrix(1 0 0 1 502.7162 255.45)" fill="#2485C7" font-family="'ArialMT'" font-size="16">e</text>
		<text transform="matrix(1 0 0 1 511.6146 255.45)" fill="#2485C7" font-family="'ArialMT'" font-size="16">s</text>
		<text transform="matrix(1 0 0 1 519.6146 255.45)" fill="#2485C7" font-family="'ArialMT'" font-size="16">t</text>
		<text transform="matrix(1 0 0 1 482.0541 330.3633)" fill="#2485C7" font-family="'Arial-BoldMT'" font-size="12">Client OK</text>
		<text transform="matrix(1 0 0 1 482.0541 344.7632)" fill="#2485C7" font-family="'Arial-BoldMT'" font-size="12">&amp; Launch</text>
	</g>
</g>
</svg>
